<?xml version="1.0" standalone="no"?>
<!DOCTYPE svg PUBLIC "-//W3C//DTD SVG 20010904//EN"
 "http://www.w3.org/TR/2001/REC-SVG-20010904/DTD/svg10.dtd">
<svg version="1.0" xmlns="http://www.w3.org/2000/svg"
 width="574.000000pt" height="472.000000pt" viewBox="0 0 574.000000 472.000000"
 preserveAspectRatio="xMidYMid meet">

<g transform="translate(0.000000,472.000000) scale(0.100000,-0.100000)"
fill="#000000" stroke="none">
<path d="M720 2357 l0 -1794 497 -6 c273 -4 1261 -7 2195 -7 l1698 0 0 1800 0
1800 -2195 0 -2195 0 0 -1793z m4278 -4 l-3 -1688 -1060 1 c-583 1 -1520 2
-2082 3 l-1023 1 0 1685 0 1685 2085 0 2085 0 -2 -1687z"/>
<path d="M2765 3156 c-204 -51 -352 -243 -354 -458 l-1 -58 59 0 58 0 5 78 c8
127 77 236 190 297 70 38 202 48 276 20 104 -40 171 -108 205 -209 31 -90 16
-178 -46 -270 -19 -28 -166 -208 -327 -401 -425 -509 -420 -502 -420 -564 l0
-51 480 0 480 0 0 54 0 54 -132 7 c-73 3 -253 5 -401 3 -147 -2 -267 -2 -267
0 0 1 112 136 248 300 471 563 492 592 515 725 36 213 -119 429 -341 476 -67
14 -163 13 -227 -3z"/>
<path d="M1110 3101 l0 -61 240 0 240 0 2 -257 c1 -142 3 -330 4 -418 1 -88 2
-307 3 -487 l1 -328 55 0 55 0 0 745 0 745 230 0 230 0 0 55 0 56 -257 1
c-142 0 -381 3 -530 5 l-273 5 0 -61z"/>
<path d="M3710 2356 l0 -806 178 0 c145 0 193 4 256 20 217 55 396 226 472
451 74 219 68 495 -15 707 -56 142 -191 290 -323 355 -119 58 -172 68 -380 74
l-188 5 0 -806z m328 680 c135 -20 224 -65 322 -164 58 -58 86 -96 113 -152
61 -128 72 -184 72 -370 0 -186 -11 -242 -72 -370 -47 -100 -160 -213 -258
-260 -81 -39 -205 -62 -312 -58 l-78 3 -3 679 c-2 373 -1 685 2 692 7 18 92
18 214 0z"/>
</g>
</svg>
